<svg width="15" height="25" viewBox="0 0 15 25" fill="none" xmlns="http://www.w3.org/2000/svg">
<path d="M10.5 2V0.965C10.502 0.905897 10.4923 0.846979 10.4716 0.791614C10.4508 0.736249 10.4193 0.685524 10.3789 0.642338C10.3385 0.599152 10.29 0.564352 10.2361 0.539929C10.1822 0.515505 10.1241 0.501937 10.065 0.5H4.935C4.87589 0.501937 4.81775 0.515505 4.76389 0.539929C4.71004 0.564352 4.66152 0.599152 4.62112 0.642338C4.58072 0.685524 4.54923 0.736249 4.52845 0.791614C4.50766 0.846979 4.498 0.905897 4.5 0.965V2H1.5C1.29765 2.01674 1.10878 2.10818 0.970142 2.25652C0.831507 2.40486 0.753034 2.59948 0.75 2.8025V23.8025C0.763309 23.9922 0.848165 24.1697 0.987401 24.2992C1.12664 24.4287 1.30986 24.5005 1.5 24.5H13.5C13.6914 24.5003 13.8756 24.4275 14.015 24.2965C14.1545 24.1654 14.2385 23.986 14.25 23.795V2.795C14.2451 2.59329 14.1658 2.40051 14.0274 2.25374C13.8889 2.10698 13.7011 2.0166 13.5 2H10.5ZM9.195 18.08C9.30142 18.2938 9.31853 18.5412 9.24258 18.7676C9.16663 18.9941 9.00383 19.1811 8.79 19.2875C8.57617 19.3939 8.32882 19.411 8.10237 19.3351C7.87592 19.2591 7.68892 19.0963 7.5825 18.8825L3.4875 10.67L7.9875 11.42L6.27 8.42C6.21091 8.31757 6.17256 8.2045 6.15717 8.08725C6.14177 7.97 6.14962 7.85087 6.18026 7.73666C6.2109 7.62244 6.26374 7.51538 6.33576 7.42158C6.40778 7.32779 6.49757 7.24909 6.6 7.19C6.70243 7.13091 6.8155 7.09256 6.93275 7.07717C7.05 7.06177 7.16913 7.06961 7.28334 7.10026C7.39756 7.1309 7.50462 7.18374 7.59842 7.25576C7.69221 7.32778 7.77091 7.41757 7.83 7.52L11.4525 13.7975L6.675 13.025L9.195 18.08Z" fill="white"/>
</svg>
