<svg width="25" height="25" viewBox="0 0 25 25" fill="none" xmlns="http://www.w3.org/2000/svg">
<rect width="25" height="25" rx="6" fill="white"/>
<path d="M17.5 11C17.5 13.49 13 19.5 13 19.5C13 19.5 8.5 13.49 8.5 11C8.5 9.80653 8.97411 8.66193 9.81802 7.81802C10.6619 6.97411 11.8065 6.5 13 6.5C14.1935 6.5 15.3381 6.97411 16.182 7.81802C17.0259 8.66193 17.5 9.80653 17.5 11Z" stroke="black" stroke-linecap="round" stroke-linejoin="round"/>
<path d="M13 12.5C13.8284 12.5 14.5 11.8284 14.5 11C14.5 10.1716 13.8284 9.5 13 9.5C12.1716 9.5 11.5 10.1716 11.5 11C11.5 11.8284 12.1716 12.5 13 12.5Z" stroke="black" stroke-linecap="round" stroke-linejoin="round"/>
</svg>
