<svg width="41" height="41" viewBox="0 0 41 41" fill="none" xmlns="http://www.w3.org/2000/svg">
<path d="M8.61917 17.8279C11.7992 24.0775 16.9225 29.1787 23.1721 32.3808L28.0304 27.5225C28.6267 26.9263 29.51 26.7275 30.2829 26.9925C32.7562 27.8096 35.4283 28.2512 38.1667 28.2512C39.3812 28.2512 40.375 29.245 40.375 30.4596V38.1667C40.375 39.3812 39.3812 40.375 38.1667 40.375C17.4304 40.375 0.625 23.5696 0.625 2.83333C0.625 1.61875 1.61875 0.625 2.83333 0.625H10.5625C11.7771 0.625 12.7708 1.61875 12.7708 2.83333C12.7708 5.59375 13.2125 8.24375 14.0296 10.7171C14.2725 11.49 14.0958 12.3512 13.4775 12.9696L8.61917 17.8279Z" fill="white"/>
</svg>
