<svg width="21" height="19" viewBox="0 0 21 19" fill="none" xmlns="http://www.w3.org/2000/svg">
<path d="M13.011 2.62399C13.7821 3.47635 14.3313 4.50549 14.6102 5.62049C14.889 6.73549 14.889 7.90201 14.61 9.01699L14.539 9.27899L17.939 13.652C18.2253 14.02 18.4114 14.4558 18.4792 14.917C18.547 15.3783 18.4943 15.8492 18.326 16.284C18.4463 16.3167 18.5725 16.3219 18.695 16.299L18.815 16.269C19.0655 16.1891 19.3374 16.211 19.5718 16.3301C19.8062 16.4492 19.9843 16.6557 20.0676 16.9051C20.1508 17.1546 20.1324 17.4267 20.0165 17.6627C19.9005 17.8986 19.6963 18.0795 19.448 18.166C18.7979 18.3899 18.0877 18.3635 17.456 18.092C17.2594 18.0088 17.0728 17.9035 16.9 17.778C16.4855 17.9611 16.0315 18.037 15.5799 17.9985C15.1283 17.9601 14.6937 17.8086 14.316 17.558L14.152 17.439L9.78004 14.039C8.6329 14.3737 7.41915 14.4092 6.2544 14.1421C5.08965 13.875 4.01268 13.3142 3.12604 12.513C5.26251 11.4696 7.21046 10.0779 8.89004 8.39499C10.5746 6.71382 11.9673 4.7628 13.011 2.62399ZM11.419 1.31399C10.4537 3.42299 9.11822 5.34197 7.47604 6.97999C5.83899 8.62072 3.9214 9.95511 1.81404 10.92C1.01203 9.58105 0.680286 8.01257 0.871479 6.46356C1.06267 4.91456 1.76584 3.47382 2.86935 2.37008C3.97286 1.26634 5.41346 0.562868 6.96242 0.371353C8.51139 0.179837 10.0799 0.512254 11.419 1.31399Z" fill="white"/>
</svg>
